<svg width="151" height="72" viewBox="0 0 151 72" fill="none" xmlns="http://www.w3.org/2000/svg">
<g clip-path="url(#clip0_2827_15253)">
<path d="M13.256 16H26.744C29.6469 16 32 18.3531 32 21.256V34.744C32 37.6469 29.6469 40 26.744 40H13.256C10.3531 40 8 37.6469 8 34.744V21.256C8 18.3531 10.3531 16 13.256 16Z" fill="url(#paint0_linear_2827_15253)"/>
<path d="M15.6933 33.4197L15.6955 33.4204L14.8749 34.8417C14.5754 35.3605 13.912 35.5382 13.3932 35.2387C12.8745 34.9392 12.6967 34.2758 12.9962 33.757L13.6007 32.71L13.6587 32.6095C13.7623 32.4606 14.018 32.2036 14.5294 32.2519C14.5294 32.2519 15.7328 32.3825 15.8199 33.008C15.8199 33.008 15.8318 33.2138 15.6933 33.4197ZM27.3317 29.7897H24.7729C24.5986 29.778 24.5226 29.7157 24.4926 29.6795L24.4907 29.6763L21.7516 24.9319L21.748 24.9343L21.5838 24.6988C21.3145 24.287 20.887 25.34 20.887 25.34C20.3766 26.5134 20.9595 27.8474 21.1627 28.2506L24.9672 34.8403C25.2667 35.359 25.93 35.5368 26.4489 35.2372C26.9677 34.9377 27.1455 34.2743 26.8459 33.7555L25.8946 32.1077C25.8761 32.0678 25.8441 31.9594 26.0392 31.959H27.3317C27.9307 31.959 28.4164 31.4733 28.4164 30.8743C28.4164 30.2752 27.9307 29.7896 27.3317 29.7896V29.7897ZM22.3616 31.2642C22.3616 31.2642 22.4982 31.959 21.9698 31.959H12.5105C11.9114 31.959 11.4258 31.4733 11.4258 30.8743C11.4258 30.2752 11.9114 29.7896 12.5105 29.7896H14.9423C15.335 29.7669 15.428 29.5402 15.428 29.5402L15.4302 29.5413L18.6046 24.0431L18.6037 24.0429C18.6615 23.9367 18.6133 23.8363 18.605 23.8204L17.5566 22.0046C17.257 21.4859 17.4348 20.8224 17.9536 20.523C18.4724 20.2234 19.1358 20.4011 19.4353 20.9199L19.9215 21.7621L20.4068 20.9214C20.7064 20.4027 21.3698 20.2248 21.8886 20.5245C22.4074 20.824 22.5851 21.4873 22.2856 22.0061L17.8683 29.657C17.849 29.7036 17.8431 29.7768 17.9868 29.7896H20.6272L20.6277 29.8154C20.6277 29.8154 22.1538 29.8391 22.3616 31.2642Z" fill="white"/>
</g>
<path d="M43.8065 35L44.886 31.6832H50.1346L51.2141 35H54.5096L49.4954 20.4545H45.5323L40.511 35H43.8065ZM45.6673 29.2827L47.457 23.7784H47.5707L49.3604 29.2827H45.6673ZM56.2035 39.0909H59.229V33.2528H59.3214C59.7404 34.1619 60.6566 35.1776 62.418 35.1776C64.9038 35.1776 66.8427 33.2102 66.8427 29.5597C66.8427 25.8097 64.8185 23.9489 62.4251 23.9489C60.5998 23.9489 59.7262 25.0355 59.3214 25.9233H59.1864V24.0909H56.2035V39.0909ZM59.1651 29.5455C59.1651 27.5994 59.989 26.3565 61.4592 26.3565C62.9577 26.3565 63.7532 27.6562 63.7532 29.5455C63.7532 31.4489 62.9435 32.7699 61.4592 32.7699C60.0032 32.7699 59.1651 31.4915 59.1651 29.5455ZM68.8597 39.0909H71.8853V33.2528H71.9776C72.3967 34.1619 73.3129 35.1776 75.0742 35.1776C77.56 35.1776 79.4989 33.2102 79.4989 29.5597C79.4989 25.8097 77.4748 23.9489 75.0813 23.9489C73.256 23.9489 72.3825 25.0355 71.9776 25.9233H71.8427V24.0909H68.8597V39.0909ZM71.8214 29.5455C71.8214 27.5994 72.6452 26.3565 74.1154 26.3565C75.614 26.3565 76.4094 27.6562 76.4094 29.5455C76.4094 31.4489 75.5998 32.7699 74.1154 32.7699C72.6594 32.7699 71.8214 31.4915 71.8214 29.5455ZM89.4634 24.6378H92.4109C92.3683 22.0455 90.2376 20.2557 86.9989 20.2557C83.81 20.2557 81.4734 22.017 81.4876 24.6591C81.4805 26.804 82.9933 28.0327 85.4506 28.6222L87.0344 29.0199C88.6183 29.4034 89.4989 29.858 89.506 30.8381C89.4989 31.9034 88.4904 32.6278 86.9279 32.6278C85.3299 32.6278 84.1793 31.8892 84.0799 30.4332H81.104C81.1822 33.5795 83.4336 35.206 86.9634 35.206C90.5146 35.206 92.6026 33.5085 92.6097 30.8452C92.6026 28.4233 90.7773 27.1378 88.2489 26.5696L86.9421 26.2571C85.6779 25.9659 84.6197 25.4972 84.641 24.4531C84.641 23.5156 85.4719 22.8267 86.9776 22.8267C88.4478 22.8267 89.3498 23.4943 89.4634 24.6378ZM100.424 24.0909H98.3714V21.4773H95.3459V24.0909H93.8544V26.3636H95.3459V32.0455C95.3317 34.1832 96.7876 35.2415 98.9822 35.1491C99.7635 35.1207 100.317 34.9645 100.623 34.8651L100.147 32.6136C99.9979 32.642 99.6783 32.7131 99.3942 32.7131C98.7905 32.7131 98.3714 32.4858 98.3714 31.6477V26.3636H100.424V24.0909ZM107.207 35.2131C110.516 35.2131 112.576 32.9474 112.576 29.5881C112.576 26.2074 110.516 23.9489 107.207 23.9489C103.897 23.9489 101.837 26.2074 101.837 29.5881C101.837 32.9474 103.897 35.2131 107.207 35.2131ZM107.221 32.8693C105.694 32.8693 104.913 31.4702 104.913 29.5668C104.913 27.6634 105.694 26.2571 107.221 26.2571C108.719 26.2571 109.501 27.6634 109.501 29.5668C109.501 31.4702 108.719 32.8693 107.221 32.8693ZM114.543 35H117.569V28.8281C117.569 27.4858 118.549 26.5625 119.884 26.5625C120.303 26.5625 120.879 26.6335 121.163 26.7259V24.0412C120.893 23.9773 120.516 23.9347 120.211 23.9347C118.989 23.9347 117.988 24.6449 117.59 25.9943H117.477V24.0909H114.543V35ZM127.191 35.2131C129.89 35.2131 131.708 33.8991 132.134 31.875L129.336 31.6903C129.03 32.5213 128.249 32.9545 127.24 32.9545C125.728 32.9545 124.769 31.9531 124.769 30.3267V30.3196H132.198V29.4886C132.198 25.7812 129.953 23.9489 127.07 23.9489C123.86 23.9489 121.779 26.2287 121.779 29.5952C121.779 33.054 123.831 35.2131 127.191 35.2131ZM124.769 28.4446C124.833 27.2017 125.777 26.2074 127.12 26.2074C128.434 26.2074 129.343 27.1449 129.35 28.4446H124.769Z" fill="white"/>
<defs>
<linearGradient id="paint0_linear_2827_15253" x1="20" y1="16" x2="20" y2="40" gradientUnits="userSpaceOnUse">
<stop stop-color="#17C9FB"/>
<stop offset="1" stop-color="#1A74E8"/>
</linearGradient>
<clipPath id="clip0_2827_15253">
<rect width="24" height="24" fill="white" transform="translate(8 16)"/>
</clipPath>
</defs>
</svg>
