<svg width="151" height="72" viewBox="0 0 151 72" fill="none" xmlns="http://www.w3.org/2000/svg">
<path d="M9.44399 17.3734C9.16901 17.6627 9.00781 18.1107 9.00781 18.6799V39.3225C9.00781 39.9011 9.16901 40.349 9.44399 40.629L9.51037 40.6943L21.2587 29.1412V29.0012V28.8612L9.51037 17.3081L9.44399 17.3734Z" fill="url(#paint0_linear_2827_15268)"/>
<path d="M25.1778 32.9941L21.2617 29.14V29V28.86L25.1778 25.0059L25.2632 25.0525L29.8999 27.6468C31.2274 28.3841 31.2274 29.5972 29.8999 30.3438L25.2632 32.9381L25.1778 32.9941Z" fill="url(#paint1_linear_2827_15268)"/>
<path d="M25.2615 32.9475L21.26 29L9.44531 40.6278C9.88149 41.085 10.6021 41.141 11.4176 40.6838L25.2615 32.9475Z" fill="url(#paint2_linear_2827_15268)"/>
<path d="M25.2632 25.0619L11.4098 17.3162C10.5943 16.859 9.87368 16.915 9.4375 17.3722L21.2617 29L25.2632 25.0619Z" fill="url(#paint3_linear_2827_15268)"/>
<path opacity="0.2" d="M25.1761 32.854L11.4081 40.553C10.6401 40.9822 9.94787 40.9542 9.51169 40.5623L9.44531 40.6276L9.51169 40.6929C9.95735 41.0849 10.6401 41.1129 11.4081 40.6836L25.2615 32.938L25.1761 32.854Z" fill="black"/>
<path opacity="0.12" d="M9.44399 40.4969C9.16901 40.2076 9.00781 39.7597 9.00781 39.1904V39.3304C9.00781 39.909 9.16901 40.3569 9.44399 40.6369L9.51037 40.5716L9.44399 40.4969Z" fill="black"/>
<path opacity="0.12" d="M29.8995 30.2132L25.168 32.8541L25.2533 32.9381L29.8901 30.3438C30.5538 29.9705 30.8857 29.4853 30.8857 29C30.8383 29.4386 30.5064 29.8772 29.8995 30.2132Z" fill="black"/>
<path opacity="0.25" d="M11.4085 17.4462L29.8986 27.7861C30.4959 28.1221 30.8373 28.5514 30.8942 28.9993C30.8942 28.514 30.5623 28.0194 29.8986 27.6555L11.4085 17.3155C10.081 16.5783 9 17.1942 9 18.6874V18.8273C9 17.3249 10.0904 16.709 11.4085 17.4462Z" fill="white"/>
<path d="M72.1806 26.5197C69.389 26.5197 67.1082 28.6218 67.1082 31.5109C67.1082 34.3881 69.389 36.5021 72.1806 36.5021C74.9722 36.5021 77.253 34.3881 77.253 31.5109C77.253 28.6218 74.9722 26.5197 72.1806 26.5197ZM72.1806 34.5408C70.6482 34.5408 69.3296 33.2959 69.3296 31.5109C69.3296 29.714 70.6482 28.4809 72.1806 28.4809C73.713 28.4809 75.0316 29.714 75.0316 31.5109C75.0316 33.2959 73.713 34.5408 72.1806 34.5408ZM61.1211 26.5197C58.3295 26.5197 56.0487 28.6218 56.0487 31.5109C56.0487 34.3881 58.3295 36.5021 61.1211 36.5021C63.9127 36.5021 66.1935 34.3881 66.1935 31.5109C66.1935 28.6218 63.9127 26.5197 61.1211 26.5197ZM61.1211 34.5408C59.5887 34.5408 58.2701 33.2959 58.2701 31.5109C58.2701 29.714 59.5887 28.4809 61.1211 28.4809C62.6535 28.4809 63.9721 29.714 63.9721 31.5109C63.9721 33.2959 62.6535 34.5408 61.1211 34.5408ZM47.959 28.0581V30.172H53.0908C52.9364 31.3582 52.5325 32.239 51.9267 32.8379C51.1783 33.5778 50.0141 34.3881 47.9709 34.3881C44.8111 34.3881 42.3402 31.8749 42.3402 28.751C42.3402 25.6271 44.8111 23.1139 47.9709 23.1139C49.6696 23.1139 50.9169 23.7716 51.8316 24.6289L53.3403 23.1374C52.0573 21.9278 50.3586 21 47.959 21C43.635 21 40 24.4762 40 28.7628C40 33.0376 43.635 36.5255 47.959 36.5255C50.2992 36.5255 52.0573 35.7739 53.4353 34.3529C54.8489 32.9554 55.2885 30.9824 55.2885 29.3969C55.2885 28.9037 55.2528 28.4457 55.1697 28.0699H47.959V28.0581ZM101.783 29.7023C101.368 28.5866 100.085 26.5197 97.4594 26.5197C94.8579 26.5197 92.6959 28.5396 92.6959 31.5109C92.6959 34.3059 94.8341 36.5021 97.7089 36.5021C100.025 36.5021 101.368 35.1045 101.914 34.2942L100.192 33.155C99.6214 33.9888 98.8374 34.5408 97.7089 34.5408C96.5803 34.5408 95.7726 34.0241 95.2618 33.0258L102.021 30.266L101.783 29.7023ZM94.8935 31.3699C94.8341 29.4439 96.4022 28.4574 97.5307 28.4574C98.4097 28.4574 99.1581 28.892 99.4076 29.5144L94.8935 31.3699ZM89.4053 36.2085H91.6267V21.5285H89.4053V36.2085ZM85.7584 27.6354H85.6872C85.1883 27.0482 84.2379 26.5197 83.0262 26.5197C80.496 26.5197 78.1796 28.7158 78.1796 31.5344C78.1796 34.3294 80.496 36.5138 83.0262 36.5138C84.226 36.5138 85.1883 35.9853 85.6872 35.3746H85.7584V36.091C85.7584 38.0053 84.725 39.027 83.0619 39.027C81.7077 39.027 80.8642 38.064 80.5197 37.2537L78.5834 38.0523C79.1418 39.3793 80.6148 41 83.0619 41C85.6634 41 87.8611 39.485 87.8611 35.7974V26.825H85.7584V27.6354ZM83.2163 34.5408C81.6839 34.5408 80.401 33.2725 80.401 31.5344C80.401 29.7728 81.6839 28.4927 83.2163 28.4927C84.725 28.4927 85.9129 29.7845 85.9129 31.5344C85.9129 33.2725 84.725 34.5408 83.2163 34.5408ZM112.178 21.5285H106.868V36.2085H109.089V30.6418H112.19C114.649 30.6418 117.06 28.8802 117.06 26.0851C117.06 23.2901 114.637 21.5285 112.178 21.5285ZM112.237 28.5984H109.089V23.5602H112.237C113.9 23.5602 114.839 24.9225 114.839 26.0734C114.839 27.2243 113.9 28.5984 112.237 28.5984ZM125.934 26.4962C124.33 26.4962 122.667 27.2008 121.978 28.7393L123.95 29.5496C124.366 28.7393 125.15 28.4692 125.969 28.4692C127.11 28.4692 128.286 29.1503 128.298 30.36V30.5126C127.894 30.2895 127.038 29.9489 125.981 29.9489C123.855 29.9489 121.705 31.0998 121.705 33.249C121.705 35.2102 123.439 36.4786 125.387 36.4786C126.872 36.4786 127.704 35.8209 128.214 35.0458H128.286V36.185H130.424V30.5596C130.448 27.9524 128.476 26.4962 125.934 26.4962ZM125.672 34.5408C124.948 34.5408 123.938 34.1767 123.938 33.2959C123.938 32.1685 125.197 31.734 126.29 31.734C127.264 31.734 127.727 31.9454 128.31 32.2272C128.131 33.5778 126.943 34.5408 125.672 34.5408ZM138.24 26.8133L135.698 33.1785H135.627L132.99 26.8133H130.602L134.558 35.7152L132.301 40.6594H134.617L140.699 26.8133H138.24ZM118.272 36.2085H120.493V21.5285H118.272V36.2085Z" fill="white"/>
<defs>
<linearGradient id="paint0_linear_2827_15268" x1="20.2153" y1="18.4651" x2="4.55582" y2="34.3763" gradientUnits="userSpaceOnUse">
<stop stop-color="#00A0FF"/>
<stop offset="0.00657445" stop-color="#00A1FF"/>
<stop offset="0.2601" stop-color="#00BEFF"/>
<stop offset="0.5122" stop-color="#00D2FF"/>
<stop offset="0.7604" stop-color="#00DFFF"/>
<stop offset="1" stop-color="#00E3FF"/>
</linearGradient>
<linearGradient id="paint1_linear_2827_15268" x1="31.6297" y1="29.0014" x2="8.68597" y2="29.0014" gradientUnits="userSpaceOnUse">
<stop stop-color="#FFE000"/>
<stop offset="0.4087" stop-color="#FFBD00"/>
<stop offset="0.7754" stop-color="#FFA500"/>
<stop offset="1" stop-color="#FF9C00"/>
</linearGradient>
<linearGradient id="paint2_linear_2827_15268" x1="23.0871" y1="31.1428" x2="1.85162" y2="52.7198" gradientUnits="userSpaceOnUse">
<stop stop-color="#FF3A44"/>
<stop offset="1" stop-color="#C31162"/>
</linearGradient>
<linearGradient id="paint3_linear_2827_15268" x1="6.46694" y1="10.5004" x2="15.9496" y2="20.1353" gradientUnits="userSpaceOnUse">
<stop stop-color="#32A071"/>
<stop offset="0.0685" stop-color="#2DA771"/>
<stop offset="0.4762" stop-color="#15CF74"/>
<stop offset="0.8009" stop-color="#06E775"/>
<stop offset="1" stop-color="#00F076"/>
</linearGradient>
</defs>
</svg>
