<svg width="108" height="83" viewBox="0 0 108 83" fill="none" xmlns="http://www.w3.org/2000/svg">
<path d="M28.6702 37.3245H39.5129V39.343H35.2437V50.7216H32.9037V39.343H28.6523L28.6702 37.3245ZM39.0485 41.0221H41.0491V42.8977H41.0849C41.1563 42.6297 41.2814 42.3797 41.46 42.1296C41.6386 41.8795 41.853 41.6473 42.1209 41.4508C42.371 41.2364 42.6568 41.0757 42.9783 40.9506C43.282 40.8256 43.6035 40.7541 43.9251 40.7541C44.1752 40.7541 44.3538 40.772 44.4431 40.772C44.5324 40.7899 44.6396 40.8077 44.7289 40.8077V42.862C44.586 42.8262 44.4252 42.8084 44.2645 42.7905C44.1037 42.7726 43.9608 42.7548 43.8 42.7548C43.4428 42.7548 43.1034 42.8262 42.7818 42.9691C42.4603 43.112 42.1924 43.3264 41.9423 43.5943C41.7101 43.8801 41.5136 44.2195 41.3707 44.6304C41.2278 45.0412 41.1563 45.5235 41.1563 46.0594V50.668H39.0128L39.0485 41.0221ZM54.5535 50.7216H52.4457V49.364H52.4099C52.142 49.8642 51.749 50.2393 51.231 50.543C50.713 50.8467 50.1771 50.9896 49.6412 50.9896C48.3729 50.9896 47.4441 50.6859 46.8724 50.0428C46.3008 49.4176 46.015 48.453 46.015 47.1848V41.0221H48.1586V46.9704C48.1586 47.8278 48.3193 48.4352 48.6587 48.7746C48.9803 49.1318 49.4447 49.3105 50.0342 49.3105C50.4808 49.3105 50.8559 49.239 51.1595 49.0961C51.4632 48.9532 51.7133 48.7746 51.8919 48.5424C52.0884 48.3101 52.2135 48.0243 52.3028 47.7028C52.3921 47.3813 52.4278 47.024 52.4278 46.6489V41.0221H54.5714V50.7216H54.5535ZM58.1975 47.6135C58.269 48.2387 58.5012 48.6674 58.912 48.9353C59.3229 49.1854 59.823 49.3105 60.3947 49.3105C60.5911 49.3105 60.8234 49.2926 61.0734 49.2569C61.3235 49.2211 61.5736 49.1676 61.788 49.0782C62.0202 48.9889 62.1988 48.8639 62.3417 48.6853C62.4846 48.5066 62.5561 48.2923 62.5382 48.0243C62.5203 47.7564 62.431 47.5242 62.2345 47.3455C62.038 47.1669 61.8058 47.0419 61.52 46.9168C61.2342 46.8097 60.8948 46.7203 60.5197 46.6489C60.1446 46.5774 59.7695 46.4881 59.3765 46.3988C58.9835 46.3095 58.5905 46.2023 58.2154 46.0773C57.8403 45.9522 57.5187 45.7915 57.2151 45.5593C56.9293 45.3449 56.6792 45.077 56.5184 44.7376C56.3398 44.3982 56.2505 44.0052 56.2505 43.505C56.2505 42.9691 56.3755 42.5404 56.6434 42.1832C56.8935 41.8259 57.2329 41.5401 57.6259 41.3257C58.0189 41.1114 58.4655 40.9506 58.9478 40.8613C59.4301 40.772 59.8945 40.7363 60.3232 40.7363C60.8234 40.7363 61.3057 40.7899 61.7522 40.897C62.1988 41.0042 62.6275 41.165 62.9848 41.4151C63.3599 41.6473 63.6636 41.9688 63.8958 42.3439C64.1459 42.719 64.2888 43.1835 64.3602 43.7194H62.1274C62.0202 43.2014 61.788 42.862 61.4307 42.6833C61.0556 42.5047 60.6447 42.4154 60.1624 42.4154C60.0195 42.4154 59.823 42.4332 59.6266 42.4511C59.4122 42.4868 59.2336 42.5226 59.0371 42.594C58.8585 42.6655 58.6977 42.7726 58.5726 42.8977C58.4476 43.0227 58.3762 43.2013 58.3762 43.4157C58.3762 43.6836 58.4655 43.8801 58.6441 44.0409C58.8227 44.2017 59.0549 44.3267 59.3586 44.4518C59.6444 44.5589 59.9838 44.6482 60.3589 44.7197C60.7341 44.7911 61.127 44.8805 61.52 44.9698C61.913 45.0591 62.2881 45.1663 62.6632 45.2913C63.0384 45.4163 63.3778 45.5771 63.6636 45.8093C63.9494 46.0237 64.1995 46.2916 64.3781 46.6132C64.5567 46.9347 64.646 47.3455 64.646 47.81C64.646 48.3816 64.521 48.8639 64.253 49.2747C63.9851 49.6677 63.6457 50.0071 63.2349 50.2572C62.824 50.5073 62.3417 50.6859 61.8416 50.8109C61.3235 50.9181 60.8234 50.9896 60.3232 50.9896C59.7159 50.9896 59.1443 50.9181 58.6262 50.7752C58.1082 50.6323 57.6438 50.418 57.2686 50.15C56.8935 49.8642 56.5899 49.5248 56.3755 49.0961C56.1611 48.6853 56.0361 48.1851 56.0182 47.5956H58.1797V47.6135H58.1975ZM65.2534 41.0221H66.8789V38.0926H69.0224V41.0042H70.9516V42.594H69.0224V47.7743C69.0224 48.0065 69.0403 48.1851 69.0582 48.3637C69.076 48.5245 69.1296 48.6674 69.1832 48.7746C69.2547 48.8817 69.3618 48.9711 69.4869 49.0247C69.6298 49.0782 69.8084 49.114 70.0585 49.114C70.2014 49.114 70.3621 49.114 70.5051 49.0961C70.648 49.0782 70.8087 49.0604 70.9516 49.0247V50.6859C70.7194 50.7216 70.4872 50.7395 70.255 50.7574C70.0228 50.7931 69.8084 50.7931 69.5583 50.7931C68.9867 50.7931 68.5401 50.7395 68.2007 50.6323C67.8613 50.5251 67.5934 50.3644 67.3969 50.1679C67.2004 49.9535 67.0754 49.7034 67.0039 49.3998C66.9325 49.0961 66.8968 48.721 66.8789 48.328V42.6119H65.2534V40.9864V41.0221ZM72.4521 41.0221H74.4706V42.3439H74.5063C74.81 41.7723 75.2209 41.3793 75.7567 41.1293C76.2926 40.8792 76.8642 40.7541 77.5073 40.7541C78.2754 40.7541 78.9363 40.8792 79.508 41.165C80.0796 41.4329 80.544 41.7902 80.9191 42.2725C81.2942 42.7369 81.58 43.2907 81.7587 43.9159C81.9373 44.5411 82.0445 45.2199 82.0445 45.9165C82.0445 46.5774 81.9552 47.2026 81.7944 47.81C81.6158 48.4173 81.3657 48.9711 81.0263 49.4355C80.6869 49.8999 80.2582 50.2751 79.7223 50.5609C79.1864 50.8467 78.5791 50.9896 77.8646 50.9896C77.5609 50.9896 77.2394 50.9538 76.9357 50.9003C76.632 50.8467 76.3284 50.7574 76.0426 50.6323C75.7567 50.5073 75.4888 50.3465 75.2566 50.15C75.0065 49.9535 74.81 49.7213 74.6492 49.4712H74.6135V54.3121H72.47V41.0221H72.4521ZM79.9367 45.8808C79.9367 45.4521 79.8831 45.0234 79.758 44.6125C79.6509 44.2017 79.4722 43.8444 79.24 43.5229C79.0078 43.2013 78.722 42.9513 78.4005 42.7548C78.0611 42.5583 77.6681 42.469 77.2394 42.469C76.3462 42.469 75.6674 42.7726 75.203 43.3978C74.7564 44.023 74.5242 44.8626 74.5242 45.8986C74.5242 46.3988 74.5778 46.8454 74.7028 47.2562C74.8279 47.6671 74.9886 48.0243 75.2387 48.328C75.4709 48.6317 75.7567 48.8639 76.0961 49.0425C76.4355 49.2211 76.8107 49.3105 77.2572 49.3105C77.7574 49.3105 78.1504 49.2033 78.4898 49.0068C78.8292 48.8103 79.0971 48.5424 79.3293 48.2387C79.5437 47.9172 79.7044 47.5599 79.7938 47.1491C79.8831 46.7203 79.9367 46.3095 79.9367 45.8808ZM83.7057 37.3245H85.8493V39.343H83.7057V37.3245ZM83.7057 41.0221H85.8493V50.7216H83.7057V41.0221ZM87.7606 37.3245H89.9042V50.7216H87.7606V37.3245ZM96.442 50.9896C95.674 50.9896 94.9772 50.8645 94.3699 50.5966C93.7625 50.3286 93.2625 49.9893 92.8337 49.5427C92.4228 49.0961 92.1013 48.5424 91.8869 47.9172C91.6726 47.292 91.5475 46.5953 91.5475 45.8629C91.5475 45.1305 91.6547 44.4518 91.8869 43.8266C92.1013 43.2014 92.4228 42.6655 92.8337 42.201C93.2445 41.7545 93.7625 41.3972 94.3699 41.1471C94.9772 40.897 95.674 40.7541 96.442 40.7541C97.2101 40.7541 97.9067 40.8792 98.5141 41.1471C99.1214 41.3972 99.6217 41.7545 100.05 42.201C100.461 42.6476 100.782 43.2014 100.997 43.8266C101.211 44.4518 101.336 45.1305 101.336 45.8629C101.336 46.6132 101.229 47.292 100.997 47.9172C100.765 48.5424 100.461 49.0782 100.05 49.5427C99.6395 49.9893 99.1214 50.3465 98.5141 50.5966C97.9067 50.8467 97.2279 50.9896 96.442 50.9896ZM96.442 49.2926C96.9064 49.2926 97.3351 49.1854 97.6745 48.9889C98.0318 48.7924 98.2997 48.5245 98.5319 48.203C98.7641 47.8814 98.9249 47.5063 99.0321 47.1133C99.1393 46.7025 99.1929 46.2916 99.1929 45.8629C99.1929 45.4521 99.1393 45.0412 99.0321 44.6304C98.9249 44.2195 98.7641 43.8623 98.5319 43.5407C98.2997 43.2192 98.0139 42.9691 97.6745 42.7726C97.3173 42.5762 96.9064 42.469 96.442 42.469C95.9775 42.469 95.5488 42.5762 95.2094 42.7726C94.8522 42.9691 94.5842 43.2371 94.352 43.5407C94.1198 43.8623 93.959 44.2195 93.8519 44.6304C93.7447 45.0412 93.6911 45.4521 93.6911 45.8629C93.6911 46.2916 93.7447 46.7025 93.8519 47.1133C93.959 47.5242 94.1198 47.8814 94.352 48.203C94.5842 48.5245 94.87 48.7924 95.2094 48.9889C95.5667 49.2033 95.9775 49.2926 96.442 49.2926ZM101.979 41.0221H103.605V38.0926H105.748V41.0042H107.678V42.594H105.748V47.7743C105.748 48.0065 105.766 48.1851 105.784 48.3637C105.802 48.5245 105.856 48.6674 105.909 48.7746C105.981 48.8817 106.088 48.9711 106.213 49.0247C106.356 49.0782 106.534 49.114 106.784 49.114C106.927 49.114 107.088 49.114 107.231 49.0961C107.374 49.0782 107.535 49.0604 107.678 49.0247V50.6859C107.445 50.7216 107.213 50.7395 106.981 50.7574C106.749 50.7931 106.534 50.7931 106.284 50.7931C105.713 50.7931 105.266 50.7395 104.927 50.6323C104.587 50.5251 104.319 50.3644 104.123 50.1679C103.926 49.9535 103.801 49.7034 103.73 49.3998C103.658 49.0961 103.623 48.721 103.605 48.328V42.6119H101.979V40.9864V41.0221Z" fill="white"/>
<path d="M16.3622 37.3244H26.169L20.6249 41.3451L20.6221 41.3362L15.0475 45.3849L18.68 44.4418L21.2567 52.4007L13.3256 46.631L5.39443 52.4007L8.43112 43.0763L0.5 37.3066L10.3067 37.3244L13.3434 28L16.3622 37.3244Z" fill="#00B67A"/>
</svg>
