<svg width="151" height="72" viewBox="0 0 151 72" fill="none" xmlns="http://www.w3.org/2000/svg">
<g clip-path="url(#clip0_2827_15239)">
<path d="M41.242 18.3418H54.4354V20.8033H49.2477V34.6409H46.3951V20.8033H41.2305V18.3418H41.242ZM53.8717 22.8393H56.3103V25.1168H56.3563C56.4368 24.7947 56.5863 24.4841 56.8049 24.1851C57.0234 23.886 57.288 23.5984 57.5985 23.3569C57.9091 23.1038 58.2542 22.9083 58.6338 22.7473C59.0134 22.5977 59.4044 22.5172 59.7955 22.5172C60.0946 22.5172 60.3131 22.5287 60.4282 22.5402C60.5432 22.5517 60.6582 22.5747 60.7847 22.5862V25.0938C60.6007 25.0593 60.4167 25.0363 60.2211 25.0133C60.0256 24.9903 59.8415 24.9787 59.6575 24.9787C59.2204 24.9787 58.8063 25.0708 58.4152 25.2433C58.0241 25.4158 57.6906 25.6804 57.403 26.014C57.1154 26.3591 56.8854 26.7731 56.7129 27.2793C56.5403 27.7854 56.4598 28.3605 56.4598 29.0161V34.6294H53.8602V22.8393H53.8717ZM72.7359 34.6409H70.1823V32.996H70.1363C69.8142 33.5941 69.3426 34.0657 68.71 34.4223C68.0773 34.7789 67.4332 34.9629 66.7776 34.9629C65.2247 34.9629 64.0975 34.5833 63.4073 33.8127C62.7172 33.042 62.3721 31.8803 62.3721 30.3274V22.8393H64.9717V30.0744C64.9717 31.1096 65.1672 31.8458 65.5698 32.2713C65.9609 32.6969 66.5245 32.9155 67.2377 32.9155C67.7898 32.9155 68.2384 32.835 68.6065 32.6624C68.9745 32.4899 69.2736 32.2713 69.4921 31.9838C69.7222 31.7077 69.8832 31.3626 69.9868 30.9716C70.0903 30.5805 70.1363 30.1549 70.1363 29.6948V22.8508H72.7359V34.6409ZM77.1643 30.8565C77.2448 31.6157 77.5324 32.1448 78.027 32.4554C78.5331 32.7544 79.1313 32.9155 79.8329 32.9155C80.0745 32.9155 80.3505 32.8925 80.6611 32.858C80.9717 32.8235 81.2707 32.7429 81.5353 32.6394C81.8113 32.5359 82.0299 32.3749 82.2139 32.1678C82.3865 31.9608 82.467 31.6962 82.4555 31.3626C82.444 31.0291 82.3174 30.753 82.0874 30.546C81.8573 30.3274 81.5698 30.1664 81.2132 30.0284C80.8566 29.9018 80.454 29.7868 79.9939 29.6948C79.5338 29.6028 79.0737 29.4992 78.6021 29.3957C78.119 29.2922 77.6474 29.1542 77.1988 29.0046C76.7502 28.8551 76.3476 28.6481 75.9911 28.3835C75.6345 28.1304 75.3469 27.7969 75.1399 27.3943C74.9213 26.9917 74.8178 26.4971 74.8178 25.899C74.8178 25.2548 74.9788 24.7257 75.2894 24.2886C75.6 23.8515 76.0026 23.5064 76.4742 23.2419C76.9573 22.9773 77.4864 22.7933 78.073 22.6782C78.6597 22.5747 79.2233 22.5172 79.7524 22.5172C80.362 22.5172 80.9487 22.5862 81.5008 22.7128C82.0529 22.8393 82.559 23.0463 83.0076 23.3454C83.4562 23.633 83.8243 24.0125 84.1233 24.4726C84.4224 24.9327 84.6065 25.4964 84.687 26.152H81.9724C81.8458 25.5309 81.5698 25.1053 81.1212 24.8982C80.6726 24.6797 80.155 24.5762 79.5799 24.5762C79.3958 24.5762 79.1773 24.5877 78.9242 24.6222C78.6712 24.6567 78.4411 24.7142 78.2111 24.7947C77.9925 24.8752 77.8085 25.0018 77.6474 25.1628C77.4979 25.3238 77.4174 25.5309 77.4174 25.7954C77.4174 26.1175 77.5324 26.3706 77.7509 26.5661C77.9695 26.7616 78.2571 26.9227 78.6136 27.0607C78.9702 27.1872 79.3728 27.3023 79.8329 27.3943C80.293 27.4863 80.7646 27.5898 81.2477 27.6933C81.7193 27.7969 82.1794 27.9349 82.6395 28.0844C83.0996 28.234 83.5022 28.441 83.8588 28.7056C84.2154 28.9701 84.5029 29.2922 84.7215 29.6833C84.94 30.0744 85.055 30.569 85.055 31.1441C85.055 31.8458 84.894 32.4324 84.5719 32.927C84.2499 33.4101 83.8358 33.8127 83.3297 34.1117C82.8236 34.4108 82.2484 34.6409 81.6273 34.7789C81.0062 34.9169 80.385 34.9859 79.7754 34.9859C79.0277 34.9859 78.3376 34.9054 77.7049 34.7329C77.0723 34.5603 76.5202 34.3073 76.0601 33.9737C75.6 33.6286 75.2319 33.203 74.9673 32.6969C74.7028 32.1908 74.5648 31.5812 74.5418 30.8795H77.1643V30.8565ZM85.7452 22.8393H87.7121V19.2965H90.3117V22.8393H92.6582V24.7832H90.3117V31.0866C90.3117 31.3626 90.3232 31.5927 90.3462 31.7997C90.3692 31.9953 90.4267 32.1678 90.5072 32.3059C90.5878 32.4439 90.7143 32.5474 90.8868 32.6164C91.0594 32.6854 91.2779 32.7199 91.577 32.7199C91.761 32.7199 91.9451 32.7199 92.1291 32.7084C92.3131 32.6969 92.4972 32.6739 92.6812 32.6279V34.6409C92.3937 34.6754 92.1061 34.6984 91.8415 34.7329C91.5655 34.7674 91.2894 34.7789 91.0018 34.7789C90.3117 34.7789 89.7596 34.7099 89.3455 34.5834C88.9314 34.4568 88.5978 34.2613 88.3678 34.0082C88.1262 33.7552 87.9767 33.4446 87.8847 33.065C87.8042 32.6854 87.7466 32.2483 87.7351 31.7652V24.8062H85.7682V22.8393H85.7452ZM94.4986 22.8393H96.9601V24.4381H97.0062C97.3742 23.748 97.8804 23.2649 98.536 22.9658C99.1916 22.6667 99.8933 22.5172 100.664 22.5172C101.596 22.5172 102.401 22.6782 103.091 23.0118C103.781 23.3339 104.356 23.7825 104.816 24.3576C105.276 24.9327 105.61 25.5999 105.84 26.3591C106.07 27.1182 106.185 27.9349 106.185 28.7976C106.185 29.5913 106.082 30.3619 105.875 31.0981C105.668 31.8458 105.357 32.5014 104.943 33.0765C104.529 33.6516 104 34.1002 103.356 34.4453C102.711 34.7904 101.964 34.9629 101.09 34.9629C100.71 34.9629 100.33 34.9284 99.9508 34.8594C99.5712 34.7904 99.2031 34.6754 98.8581 34.5258C98.513 34.3763 98.1794 34.1808 97.8919 33.9392C97.5928 33.6977 97.3512 33.4216 97.1442 33.111H97.0982V39.0003H94.4986V22.8393ZM103.586 28.7516C103.586 28.2225 103.517 27.7048 103.379 27.1987C103.241 26.6926 103.033 26.2555 102.757 25.8644C102.481 25.4734 102.136 25.1628 101.734 24.9327C101.32 24.7027 100.848 24.5762 100.319 24.5762C99.2261 24.5762 98.398 24.9557 97.8458 25.7149C97.2937 26.4741 97.0177 27.4863 97.0177 28.7516C97.0177 29.3497 97.0867 29.9018 97.2362 30.4079C97.3857 30.914 97.5928 31.3511 97.8919 31.7192C98.1794 32.0873 98.5245 32.3749 98.9271 32.5819C99.3297 32.8005 99.8013 32.904 100.33 32.904C100.929 32.904 101.423 32.7775 101.837 32.5359C102.251 32.2943 102.585 31.9723 102.849 31.5927C103.114 31.2016 103.31 30.7645 103.425 30.2699C103.528 29.7753 103.586 29.2692 103.586 28.7516ZM108.175 18.3418H110.775V20.8033H108.175V18.3418ZM108.175 22.8393H110.775V34.6409H108.175V22.8393ZM113.098 18.3418H115.698V34.6409H113.098V18.3418ZM123.669 34.9629C122.726 34.9629 121.886 34.8019 121.15 34.4913C120.414 34.1808 119.793 33.7437 119.275 33.203C118.769 32.6509 118.378 31.9953 118.113 31.2361C117.849 30.477 117.711 29.6373 117.711 28.7286C117.711 27.8314 117.849 27.0032 118.113 26.244C118.378 25.4849 118.769 24.8292 119.275 24.2771C119.781 23.725 120.414 23.2994 121.15 22.9888C121.886 22.6782 122.726 22.5172 123.669 22.5172C124.612 22.5172 125.452 22.6782 126.188 22.9888C126.924 23.2994 127.545 23.7365 128.063 24.2771C128.569 24.8292 128.96 25.4849 129.225 26.244C129.489 27.0032 129.627 27.8314 129.627 28.7286C129.627 29.6373 129.489 30.477 129.225 31.2361C128.96 31.9953 128.569 32.6509 128.063 33.203C127.557 33.7552 126.924 34.1808 126.188 34.4913C125.452 34.8019 124.612 34.9629 123.669 34.9629ZM123.669 32.904C124.244 32.904 124.75 32.7775 125.176 32.5359C125.601 32.2943 125.946 31.9723 126.223 31.5812C126.499 31.1901 126.694 30.7415 126.832 30.2469C126.959 29.7523 127.028 29.2462 127.028 28.7286C127.028 28.2225 126.959 27.7279 126.832 27.2217C126.706 26.7156 126.499 26.2785 126.223 25.8874C125.946 25.4964 125.601 25.1858 125.176 24.9442C124.75 24.7027 124.244 24.5762 123.669 24.5762C123.094 24.5762 122.588 24.7027 122.162 24.9442C121.737 25.1858 121.391 25.5079 121.115 25.8874C120.839 26.2785 120.644 26.7156 120.506 27.2217C120.379 27.7279 120.31 28.2225 120.31 28.7286C120.31 29.2462 120.379 29.7523 120.506 30.2469C120.632 30.7415 120.839 31.1901 121.115 31.5812C121.391 31.9723 121.737 32.2943 122.162 32.5359C122.588 32.789 123.094 32.904 123.669 32.904ZM130.386 22.8393H132.353V19.2965H134.953V22.8393H137.299V24.7832H134.953V31.0866C134.953 31.3626 134.964 31.5927 134.987 31.7997C135.01 31.9953 135.068 32.1678 135.148 32.3059C135.229 32.4439 135.356 32.5474 135.528 32.6164C135.701 32.6854 135.919 32.7199 136.218 32.7199C136.402 32.7199 136.586 32.7199 136.77 32.7084C136.954 32.6969 137.138 32.6739 137.322 32.6279V34.6409C137.035 34.6754 136.747 34.6984 136.483 34.7329C136.207 34.7674 135.931 34.7789 135.643 34.7789C134.953 34.7789 134.401 34.7099 133.987 34.5834C133.573 34.4568 133.239 34.2613 133.009 34.0082C132.767 33.7552 132.618 33.4446 132.526 33.065C132.445 32.6854 132.388 32.2483 132.376 31.7652V24.8062H130.409V22.8393H130.386Z" fill="white"/>
<path d="M38.2063 18.3415H26.2897L22.6089 7L18.9166 18.3415L7 18.33L16.6506 25.3465L12.9583 36.6765L22.6089 29.6715L32.248 36.6765L28.5672 25.3465L38.2063 18.3415Z" fill="#00B67A"/>
<path d="M29.3959 27.9117L28.5677 25.3467L22.6094 29.6716L29.3959 27.9117Z" fill="#005128"/>
</g>
<defs>
<clipPath id="clip0_2827_15239">
<rect width="130.3" height="32" fill="white" transform="translate(7 7)"/>
</clipPath>
</defs>
</svg>
